mtllib Cigar_Butt.mtl
usemtl blinn1SG
# Blender v2.78 (sub 0) OBJ File: ''
# www.blender.org
o Cylinder.002
v -0.005780 0.000000 -0.007769
v 0.038655 0.000000 -0.007769
v 0.038655 -0.002011 -0.007505
v -0.005780 -0.002011 -0.007505
v 0.038655 -0.003885 -0.006729
v -0.005780 -0.003885 -0.006729
v 0.038655 -0.005494 -0.005494
v -0.005780 -0.005494 -0.005494
v 0.038655 -0.006729 -0.003885
v -0.005780 -0.006729 -0.003885
v 0.038655 -0.007505 -0.002011
v -0.005780 -0.007505 -0.002011
v 0.038655 -0.007769 -0.000000
v -0.005780 -0.007769 -0.000000
v 0.038655 -0.007505 0.002011
v -0.005780 -0.007505 0.002011
v 0.038655 -0.006729 0.003885
v -0.005780 -0.006729 0.003885
v 0.038655 -0.005494 0.005494
v -0.005780 -0.005494 0.005494
v 0.038655 -0.003885 0.006729
v -0.005780 -0.003885 0.006729
v 0.038655 -0.002011 0.007505
v -0.005780 -0.002011 0.007505
v 0.038655 -0.000000 0.007769
v -0.005780 -0.000000 0.007769
v 0.038655 0.002011 0.007505
v -0.005780 0.002011 0.007505
v 0.038655 0.003885 0.006729
v -0.005780 0.003885 0.006729
v 0.038655 0.005494 0.005494
v -0.005780 0.005494 0.005494
v 0.038655 0.006729 0.003885
v -0.005780 0.006729 0.003885
v 0.038655 0.007505 0.002011
v -0.005780 0.007505 0.002011
v 0.038655 0.007769 0.000000
v -0.005780 0.007769 0.000000
v 0.038655 0.007505 -0.002011
v -0.005780 0.007505 -0.002011
v 0.038655 0.006729 -0.003885
v -0.005780 0.006729 -0.003885
v 0.038655 0.005494 -0.005494
v -0.005780 0.005494 -0.005494
v 0.038655 0.003885 -0.006729
v -0.005780 0.003885 -0.006729
v 0.047705 -0.003493 -0.003885
v 0.047705 -0.002714 -0.005494
v 0.056754 -0.005494 -0.005494
v 0.056754 -0.006729 -0.003885
v 0.038655 0.002011 -0.007505
v -0.005780 0.002011 -0.007505
v 0.047705 -0.002714 0.005494
v 0.047705 -0.003493 0.003885
v 0.056754 -0.006729 0.003885
v 0.056754 -0.005494 0.005494
v 0.047705 0.003885 0.006729
v 0.047705 0.002023 0.007505
v 0.056754 0.002011 0.007505
v 0.056754 0.003468 0.006486
v 0.047705 0.007505 -0.002011
v 0.047705 0.007769 0.000000
v 0.056754 0.006693 0.000000
v 0.056754 0.006428 -0.002011
v 0.047705 0.000754 -0.007769
v 0.047705 0.002011 -0.007505
v 0.056754 0.002011 -0.007505
v 0.056754 0.000000 -0.007769
v 0.047705 -0.001698 -0.006729
v 0.047705 -0.000515 -0.007505
v 0.056754 -0.002011 -0.007505
v 0.056754 -0.003885 -0.006729
v 0.047705 -0.003983 0.002011
v 0.047705 -0.004151 -0.000000
v 0.056754 -0.007769 -0.000000
v 0.056754 -0.007505 0.002011
v 0.047705 0.000754 0.007769
v 0.047705 -0.000515 0.007505
v 0.056754 -0.002011 0.007505
v 0.056754 -0.000000 0.007769
v 0.047705 0.007505 0.002011
v 0.047705 0.006729 0.003885
v 0.056754 0.005652 0.003885
v 0.056754 0.006428 0.002011
v 0.047705 0.003885 -0.006729
v 0.047705 0.005494 -0.005494
v 0.056754 0.004417 -0.005494
v 0.056754 0.003468 -0.006486
v 0.047705 -0.003983 -0.002011
v 0.056754 -0.007505 -0.002011
v 0.047705 -0.001698 0.006729
v 0.056754 -0.003885 0.006729
v 0.047705 0.005494 0.005494
v 0.056754 0.004417 0.005494
v 0.047705 0.006729 -0.003885
v 0.056754 0.005652 -0.003885
vt 0.0715 0.2504
vt 0.3568 0.2112
vt 0.3568 0.2504
vt 0.0715 0.2112
vt 0.3568 0.1713
vt 0.0715 0.1713
vt 0.3568 0.1306
vt 0.0715 0.1306
vt 0.3568 0.0888
vt 0.0715 0.0888
vt 0.3568 0.0462
vt 0.0715 0.0462
vt 0.3568 0.0032
vt 0.0715 0.9968
vt 0.3568 0.9538
vt 0.3568 0.9968
vt 0.0715 0.9538
vt 0.3568 0.9112
vt 0.0715 0.9112
vt 0.3568 0.8694
vt 0.0715 0.8694
vt 0.3568 0.8287
vt 0.0715 0.8287
vt 0.3568 0.7888
vt 0.0715 0.7888
vt 0.3568 0.7496
vt 0.0715 0.7496
vt 0.3568 0.7104
vt 0.0715 0.7104
vt 0.3568 0.6687
vt 0.0715 0.6687
vt 0.3568 0.6291
vt 0.0715 0.6291
vt 0.3568 0.5862
vt 0.0715 0.5862
vt 0.3568 0.5431
vt 0.0715 0.5431
vt 0.3568 0.5000
vt 0.0715 0.5000
vt 0.3568 0.4569
vt 0.0715 0.4569
vt 0.3568 0.4138
vt 0.0715 0.4138
vt 0.3568 0.3708
vt 0.0715 0.3708
vt 0.3568 0.3312
vt 0.0374 0.0888
vt 0.0032 0.1306
vt 0.0032 0.0888
vt 0.0715 0.3312
vt 0.3568 0.2895
vt 0.0715 0.2895
vt 0.0374 0.9112
vt 0.0032 0.8694
vt 0.0374 0.8694
vt 0.0374 0.7104
vt 0.0032 0.6687
vt 0.0374 0.6687
vt 0.0374 0.4569
vt 0.0032 0.5000
vt 0.0032 0.4569
vt 0.0374 0.2504
vt 0.0032 0.2895
vt 0.0032 0.2504
vt 0.0374 0.1713
vt 0.0032 0.2112
vt 0.0032 0.1713
vt 0.0374 0.9968
vt 0.0032 0.9538
vt 0.0374 0.9538
vt 0.0374 0.7888
vt 0.0032 0.7496
vt 0.0374 0.7496
vt 0.0374 0.5862
vt 0.0032 0.5431
vt 0.0374 0.5431
vt 0.0374 0.3312
vt 0.0032 0.3708
vt 0.0032 0.3312
vt 0.0374 0.0462
vt 0.0032 0.0462
vt 0.0032 0.8287
vt 0.0374 0.8287
vt 0.0032 0.6291
vt 0.0374 0.6291
vt 0.0374 0.4138
vt 0.0032 0.4138
vt 0.0374 0.1306
vt 0.0032 0.9112
vt 0.0374 0.2112
vt 0.0032 0.7104
vt 0.0374 0.5000
vt 0.0374 0.2895
vt 0.0374 0.0032
vt 0.0032 0.0032
vt 0.0032 0.7888
vt 0.0032 0.5862
vt 0.0374 0.3708
vt 0.0715 0.0032
vt 0.0032 0.9968
vt 0.4145 0.0089
vt 0.5299 0.0976
vt 0.3632 0.0756
vt 0.3954 0.1533
vt 0.3798 0.1378
vt 0.3689 0.1188
vt 0.3633 0.0975
vt 0.3689 0.0544
vt 0.3799 0.0353
vt 0.3954 0.0199
vt 0.4356 0.0032
vt 0.4576 0.0032
vt 0.4788 0.0089
vt 0.4978 0.0198
vt 0.5133 0.0354
vt 0.5243 0.0544
vt 0.5299 0.0756
vt 0.5243 0.1188
vt 0.5132 0.1379
vt 0.4977 0.1533
vt 0.4787 0.1642
vt 0.4575 0.1700
vt 0.4355 0.1700
vt 0.4144 0.1642
vt 0.3954 0.1931
vt 0.4143 0.1821
vt 0.5150 0.2850
vt 0.4575 0.1764
vt 0.4787 0.1821
vt 0.5206 0.2418
vt 0.4977 0.1931
vt 0.5132 0.2086
vt 0.5190 0.2271
vt 0.5206 0.2637
vt 0.5041 0.3039
vt 0.4885 0.3195
vt 0.3689 0.2277
vt 0.4695 0.3304
vt 0.4482 0.3361
vt 0.3632 0.2709
vt 0.4336 0.3383
vt 0.4143 0.3376
vt 0.3954 0.3266
vt 0.3689 0.2920
vt 0.3632 0.2488
vt 0.3798 0.2086
vt 0.4356 0.1764
vt 0.3798 0.3110
vn 0.0030 -0.0051 -1.0000
vn 0.0000 -0.2589 -0.9659
vn 0.0000 0.0000 -1.0000
vn 0.0304 -0.2691 -0.9626
vn 0.0000 -0.5000 -0.8660
vn 0.0726 -0.5110 -0.8565
vn 0.0000 -0.7071 -0.7071
vn 0.1181 -0.7119 -0.6923
vn 0.0000 -0.8660 -0.5000
vn 0.1557 -0.8606 -0.4849
vn 0.0000 -0.9660 -0.2586
vn 0.1787 -0.9517 -0.2497
vn 0.0000 -0.9915 -0.1302
vn 0.1846 -0.9744 0.1279
vn 0.0000 -0.9660 0.2586
vn 0.0000 -0.9915 0.1302
vn 0.1787 -0.9517 0.2497
vn 0.0000 -0.8660 0.5000
vn 0.1557 -0.8606 0.4849
vn 0.0000 -0.7071 0.7071
vn 0.1181 -0.7119 0.6923
vn 0.0000 -0.5000 0.8660
vn 0.0726 -0.5110 0.8565
vn 0.0000 -0.2589 0.9659
vn 0.0304 -0.2691 0.9626
vn 0.0000 -0.0000 1.0000
vn 0.0030 -0.0051 1.0000
vn 0.0000 0.2589 0.9659
vn -0.0025 0.2605 0.9655
vn 0.0000 0.5000 0.8660
vn -0.0001 0.5001 0.8660
vn 0.0000 0.7071 0.7071
vn 0.0000 0.8660 0.5000
vn 0.0000 0.9660 0.2586
vn 0.0000 1.0000 0.0000
vn 0.0000 0.9660 -0.2586
vn 0.0000 0.8660 -0.5000
vn 0.0000 0.7071 -0.7071
vn 0.0000 0.5000 -0.8660
vn -0.0000 -0.9305 -0.3662
vn -0.2367 -0.7064 -0.6670
vn -0.3115 -0.8332 -0.4569
vn 0.0000 0.2589 -0.9659
vn -0.0025 0.2602 -0.9655
vn -0.0000 -0.9305 0.3662
vn -0.2367 -0.7064 0.6670
vn -0.0000 -0.8265 0.5630
vn 0.0094 0.3018 0.9533
vn 0.0291 0.6384 0.7691
vn 0.0286 0.5049 0.8627
vn 0.0569 0.9647 -0.2570
vn 0.1182 0.9930 0.0000
vn 0.1141 0.9589 -0.2596
vn -0.0000 0.0064 -1.0000
vn 0.0051 0.3655 -0.9308
vn -0.0060 -0.0103 -0.9999
vn -0.0000 -0.6449 -0.7642
vn -0.0609 -0.2794 -0.9582
vn -0.1457 -0.5192 -0.8421
vn -0.0000 -0.9960 0.0893
vn -0.3568 -0.9049 0.2321
vn -0.0000 -0.9834 0.1814
vn -0.0000 -0.3610 0.9326
vn -0.0060 -0.0103 0.9999
vn -0.0000 0.0055 1.0000
vn 0.0513 0.8661 0.4973
vn 0.1141 0.9589 0.2596
vn 0.0569 0.9647 0.2570
vn 0.0285 0.5039 -0.8633
vn 0.0735 0.7482 -0.6594
vn 0.0288 0.6382 -0.7693
vn -0.0000 -0.9834 -0.1814
vn -0.3568 -0.9049 -0.2321
vn -0.1457 -0.5192 0.8421
vn -0.0000 -0.6449 0.7642
vn 0.0735 0.7482 0.6594
vn 0.0421 0.7089 0.7041
vn 0.0513 0.8661 -0.4973
vn 0.1022 0.8590 -0.5017
vn -0.0000 -0.8265 -0.5630
vn -0.3115 -0.8332 0.4569
vn -0.0000 -0.3610 -0.9326
vn 0.0055 0.3650 0.9310
vn 0.0589 0.9983 0.0000
vn 0.0093 0.3020 -0.9533
vn -0.0000 -0.9960 -0.0893
vn -0.3685 -0.9217 -0.1210
vn -0.0609 -0.2794 0.9582
vn 0.1022 0.8590 0.5017
vn 0.0421 0.7089 -0.7041
vn 0.1846 -0.9744 -0.1279
vn -0.3685 -0.9217 0.1210
vn -1.0000 -0.0000 0.0000
vn 1.0000 0.0000 0.0000
s 1
f 2/1/1 4/2/2 1/3/3
f 3/4/4 6/5/5 4/2/2
f 5/6/6 8/7/7 6/5/5
f 7/8/8 10/9/9 8/7/7
f 9/10/10 12/11/11 10/9/9
f 11/12/12 14/13/13 12/11/11
f 13/14/14 16/15/15 14/16/16
f 15/17/17 18/18/18 16/15/15
f 17/19/19 20/20/20 18/18/18
f 19/21/21 22/22/22 20/20/20
f 21/23/23 24/24/24 22/22/22
f 23/25/25 26/26/26 24/24/24
f 25/27/27 28/28/28 26/26/26
f 27/29/29 30/30/30 28/28/28
f 29/31/31 32/32/32 30/30/30
f 31/33/32 34/34/33 32/32/32
f 33/35/33 36/36/34 34/34/33
f 35/37/34 38/38/35 36/36/34
f 37/39/35 40/40/36 38/38/35
f 39/41/36 42/42/37 40/40/36
f 41/43/37 44/44/38 42/42/37
f 43/45/38 46/46/39 44/44/38
f 47/47/40 49/48/41 50/49/42
f 45/50/39 52/51/43 46/46/39
f 51/52/44 1/3/3 52/51/43
f 54/53/45 56/54/46 53/55/47
f 58/56/48 60/57/49 57/58/50
f 61/59/51 63/60/52 64/61/53
f 65/62/54 67/63/55 68/64/56
f 69/65/57 71/66/58 72/67/59
f 74/68/60 76/69/61 73/70/62
f 78/71/63 80/72/64 77/73/65
f 82/74/66 84/75/67 81/76/68
f 85/77/69 87/78/70 88/79/71
f 89/80/72 50/49/42 90/81/73
f 53/55/47 92/82/74 91/83/75
f 57/58/50 94/84/76 93/85/77
f 95/86/78 64/61/53 96/87/79
f 48/88/80 72/67/59 49/48/41
f 73/70/62 55/89/81 54/53/45
f 70/90/82 68/64/56 71/66/58
f 77/73/65 59/91/83 58/56/48
f 81/76/68 63/60/52 62/92/84
f 66/93/85 88/79/71 67/63/55
f 74/94/86 90/81/73 75/95/87
f 91/83/75 79/96/88 78/71/63
f 93/85/77 83/97/89 82/74/66
f 86/98/90 96/87/79 87/78/70
f 41/43/37 86/98/90 43/45/38
f 31/33/32 82/74/66 33/35/33
f 23/25/25 91/83/75 78/71/63
f 11/12/12 74/94/86 13/99/91
f 45/50/39 66/93/85 51/52/44
f 35/37/34 62/92/84 37/39/35
f 27/29/29 77/73/65 58/56/48
f 2/1/1 70/90/82 3/4/4
f 17/19/19 73/70/62 54/53/45
f 5/6/6 48/88/80 7/8/8
f 39/41/36 95/86/78 41/43/37
f 29/31/31 93/85/77 31/33/32
f 21/23/23 53/55/47 91/83/75
f 9/10/10 89/80/72 11/12/12
f 43/45/38 85/77/69 45/50/39
f 33/35/33 81/76/68 35/37/34
f 25/27/27 78/71/63 77/73/65
f 15/17/17 74/68/60 73/70/62
f 3/4/4 69/65/57 5/6/6
f 51/52/44 65/62/54 2/1/1
f 37/39/35 61/59/51 39/41/36
f 29/31/31 58/56/48 57/58/50
f 19/21/21 54/53/45 53/55/47
f 7/8/8 47/47/40 9/10/10
f 2/1/1 3/4/4 4/2/2
f 3/4/4 5/6/6 6/5/5
f 5/6/6 7/8/8 8/7/7
f 7/8/8 9/10/10 10/9/9
f 9/10/10 11/12/12 12/11/11
f 11/12/12 13/99/91 14/13/13
f 13/14/14 15/17/17 16/15/15
f 15/17/17 17/19/19 18/18/18
f 17/19/19 19/21/21 20/20/20
f 19/21/21 21/23/23 22/22/22
f 21/23/23 23/25/25 24/24/24
f 23/25/25 25/27/27 26/26/26
f 25/27/27 27/29/29 28/28/28
f 27/29/29 29/31/31 30/30/30
f 29/31/31 31/33/32 32/32/32
f 31/33/32 33/35/33 34/34/33
f 33/35/33 35/37/34 36/36/34
f 35/37/34 37/39/35 38/38/35
f 37/39/35 39/41/36 40/40/36
f 39/41/36 41/43/37 42/42/37
f 41/43/37 43/45/38 44/44/38
f 43/45/38 45/50/39 46/46/39
f 47/47/40 48/88/80 49/48/41
f 45/50/39 51/52/44 52/51/43
f 51/52/44 2/1/1 1/3/3
f 54/53/45 55/89/81 56/54/46
f 58/56/48 59/91/83 60/57/49
f 61/59/51 62/92/84 63/60/52
f 65/62/54 66/93/85 67/63/55
f 69/65/57 70/90/82 71/66/58
f 74/68/60 75/100/92 76/69/61
f 78/71/63 79/96/88 80/72/64
f 82/74/66 83/97/89 84/75/67
f 85/77/69 86/98/90 87/78/70
f 89/80/72 47/47/40 50/49/42
f 53/55/47 56/54/46 92/82/74
f 57/58/50 60/57/49 94/84/76
f 95/86/78 61/59/51 64/61/53
f 48/88/80 69/65/57 72/67/59
f 73/70/62 76/69/61 55/89/81
f 70/90/82 65/62/54 68/64/56
f 77/73/65 80/72/64 59/91/83
f 81/76/68 84/75/67 63/60/52
f 66/93/85 85/77/69 88/79/71
f 74/94/86 89/80/72 90/81/73
f 91/83/75 92/82/74 79/96/88
f 93/85/77 94/84/76 83/97/89
f 86/98/90 95/86/78 96/87/79
f 41/43/37 95/86/78 86/98/90
f 31/33/32 93/85/77 82/74/66
f 23/25/25 21/23/23 91/83/75
f 11/12/12 89/80/72 74/94/86
f 45/50/39 85/77/69 66/93/85
f 35/37/34 81/76/68 62/92/84
f 27/29/29 25/27/27 77/73/65
f 2/1/1 65/62/54 70/90/82
f 17/19/19 15/17/17 73/70/62
f 5/6/6 69/65/57 48/88/80
f 39/41/36 61/59/51 95/86/78
f 29/31/31 57/58/50 93/85/77
f 21/23/23 19/21/21 53/55/47
f 9/10/10 47/47/40 89/80/72
f 43/45/38 86/98/90 85/77/69
f 33/35/33 82/74/66 81/76/68
f 25/27/27 23/25/25 78/71/63
f 15/17/17 13/14/14 74/68/60
f 3/4/4 70/90/82 69/65/57
f 51/52/44 66/93/85 65/62/54
f 37/39/35 62/92/84 61/59/51
f 29/31/31 27/29/29 58/56/48
f 19/21/21 17/19/19 54/53/45
f 7/8/8 48/88/80 47/47/40
s 2
f 16/101/93 32/102/93 8/103/93
f 52/104/93 1/105/93 8/103/93
f 4/106/93 6/107/93 8/103/93
f 8/103/93 10/108/93 12/109/93
f 12/109/93 14/110/93 8/103/93
f 16/101/93 18/111/93 20/112/93
f 20/112/93 22/113/93 24/114/93
f 24/114/93 26/115/93 32/102/93
f 28/116/93 30/117/93 32/102/93
f 32/102/93 34/118/93 36/119/93
f 36/119/93 38/120/93 32/102/93
f 40/121/93 42/122/93 44/123/93
f 44/123/93 46/124/93 52/104/93
f 1/105/93 4/106/93 8/103/93
f 8/103/93 14/110/93 16/101/93
f 16/101/93 20/112/93 32/102/93
f 26/115/93 28/116/93 32/102/93
f 32/102/93 38/120/93 40/121/93
f 40/121/93 44/123/93 32/102/93
f 52/104/93 8/103/93 32/102/93
f 20/112/93 24/114/93 32/102/93
f 32/102/93 44/123/93 52/104/93
s 3
f 90/125/94 50/126/94 64/127/94
f 72/128/94 71/129/94 87/130/94
f 68/131/94 67/132/94 88/133/94
f 88/133/94 87/130/94 68/131/94
f 96/134/94 64/127/94 50/126/94
f 63/135/94 84/136/94 76/137/94
f 83/138/94 94/139/94 56/140/94
f 60/141/94 59/142/94 80/143/94
f 80/143/94 94/139/94 60/141/94
f 92/144/94 56/140/94 94/139/94
f 55/145/94 76/137/94 84/136/94
f 75/146/94 90/125/94 63/135/94
f 50/126/94 49/147/94 96/134/94
f 71/129/94 68/131/94 87/130/94
f 87/130/94 49/147/94 72/128/94
f 84/136/94 83/138/94 55/145/94
f 80/143/94 79/148/94 94/139/94
f 56/140/94 55/145/94 83/138/94
f 90/125/94 64/127/94 63/135/94
f 87/130/94 96/134/94 49/147/94
f 94/139/94 79/148/94 92/144/94
f 76/137/94 75/146/94 63/135/94
